<?xml version="1.0"?>
<svg xmlns="http://www.w3.org/2000/svg" xmlns:xlink="http://www.w3.org/1999/xlink" xmlns:svgjs="http://svgjs.com/svgjs" version="1.1" width="512" height="512" x="0" y="0" viewBox="0 0 128 128" style="enable-background:new 0 0 512 512" xml:space="preserve" class=""><g><link type="text/css" rel="stylesheet" id="dark-mode-custom-link"/><link type="text/css" rel="stylesheet" id="dark-mode-general-link"/><style lang="en" type="text/css" id="dark-mode-custom-style"/><style lang="en" type="text/css" id="dark-mode-native-style"/><g xmlns="http://www.w3.org/2000/svg"><path d="m64 5.553a58.447 58.447 0 1 0 58.447 58.447 58.514 58.514 0 0 0 -58.447-58.447zm0 113.394a54.947 54.947 0 1 1 54.947-54.947 55.009 55.009 0 0 1 -54.947 54.947z" fill="#000" data-original="#000000" style="" class=""/><path d="m64 19.664a26.837 26.837 0 0 0 -26.806 26.805c0 14.119 24.236 59.045 25.267 60.95a1.75 1.75 0 0 0 3.078 0c1.031-1.905 25.267-46.831 25.267-60.95a26.837 26.837 0 0 0 -26.806-26.805zm0 83.2c-5.424-10.3-23.306-45.1-23.306-56.39a23.306 23.306 0 0 1 46.612 0c0 11.284-17.882 46.089-23.306 56.385z" fill="#000" data-original="#000000" style="" class=""/><path d="m64 32.031a10.507 10.507 0 1 0 10.507 10.507 10.518 10.518 0 0 0 -10.507-10.507zm0 17.513a7.007 7.007 0 1 1 7.007-7.006 7.015 7.015 0 0 1 -7.007 7.006z" fill="#000" data-original="#000000" style="" class=""/></g></g></svg>
