<?xml version="1.0" encoding="UTF-8"?>
<!DOCTYPE svg PUBLIC "-//W3C//DTD SVG 1.1//EN" "http://www.w3.org/Graphics/SVG/1.1/DTD/svg11.dtd">
<!-- Creator: CorelDRAW 2019 -->
<svg xmlns="http://www.w3.org/2000/svg" xml:space="preserve" width="20mm" height="20mm" version="1.1" style="shape-rendering:geometricPrecision; text-rendering:geometricPrecision; image-rendering:optimizeQuality; fill-rule:evenodd; clip-rule:evenodd"
viewBox="0 0 2000 2000"
 xmlns:xlink="http://www.w3.org/1999/xlink"
 xmlns:xodm="http://www.corel.com/coreldraw/odm/2003">
 <defs>
  <style type="text/css">
   <![CDATA[
    .fil0 {fill:#959CA1}
   ]]>
  </style>
 </defs>
 <g id="Layer_x0020_1">
  <metadata id="CorelCorpID_0Corel-Layer"/>
  <path class="fil0" fill-opacity="0.1" d="M1079.41 46.72c455.77,42.77 818.07,406.81 858.2,863.33l-858.2 -863.33zm830.94 1189.54c-28.62,109.32 -76.22,210.99 -139.02,301.25l-1348.53 -1308.05c94.18,-69.87 201.71,-122.79 318.09,-154.17l1169.46 1160.97zm-256.92 440.27c-97.97,95.43 -216.43,169.92 -348.17,216.26l-1207.89 -1231.68c45.4,-121.39 114.86,-231.05 202.62,-323.13l1353.44 1338.55zm-500.19 255.88c-53.23,9.25 -108,14.07 -163.88,14.07 -525.78,0 -952.01,-426.23 -952.01,-952.01 0,-57.17 5.06,-113.16 14.72,-167.55l1101.17 1105.49z"/>
 </g>
</svg>
